<svg xmlns="http://www.w3.org/2000/svg" width="920" height="430" viewBox="0 0 920 430" role="img">
<rect width="100%" height="100%" fill="#ffffff"/>
<style>
text{font-family:Arial,Helvetica,sans-serif;fill:#111827}
.title{font-size:20px;font-weight:700}
.label{font-size:12px;fill:#4b5563}
.small{font-size:11px;fill:#6b7280}
.axis{stroke:#374151;stroke-width:1.2}
.grid{stroke:#e5e7eb;stroke-width:1}
</style>
<text x="82" y="30" class="title">SGD vs Adam - validation accuracy (%)</text>
<line x1="82" y1="337" x2="732" y2="337" class="axis"/>
<line x1="82" y1="62" x2="82" y2="337" class="axis"/>
<line x1="82" y1="337.0" x2="732" y2="337.0" class="grid"/>
<text x="74" y="341.0" text-anchor="end" class="small">81.40</text>
<line x1="82" y1="268.2" x2="732" y2="268.2" class="grid"/>
<text x="74" y="272.2" text-anchor="end" class="small">86.05</text>
<line x1="82" y1="199.5" x2="732" y2="199.5" class="grid"/>
<text x="74" y="203.5" text-anchor="end" class="small">90.70</text>
<line x1="82" y1="130.8" x2="732" y2="130.8" class="grid"/>
<text x="74" y="134.8" text-anchor="end" class="small">95.35</text>
<line x1="82" y1="62.0" x2="732" y2="62.0" class="grid"/>
<text x="74" y="66.0" text-anchor="end" class="small">100.00</text>
<text x="82.0" y="359" text-anchor="middle" class="small">1</text>
<text x="218.8" y="359" text-anchor="middle" class="small">5</text>
<text x="389.9" y="359" text-anchor="middle" class="small">10</text>
<text x="560.9" y="359" text-anchor="middle" class="small">15</text>
<text x="732.0" y="359" text-anchor="middle" class="small">20</text>
<text x="407.0" y="385" text-anchor="middle" class="label">epoch</text>
<text x="28" y="199.5" transform="rotate(-90 28 199.5)" text-anchor="middle" class="label">validation accuracy (%)</text>
<polyline points="82.0,309.9 116.2,246.8 150.4,219.9 184.6,202.9 218.8,194.2 253.1,186.8 287.3,179.5 321.5,175.5 355.7,170.5 389.9,165.9 424.1,163.3 458.3,160.5 492.5,160.9 526.7,154.2 560.9,151.4 595.2,149.4 629.4,147.2 663.6,142.9 697.8,144.8 732.0,144.5" fill="none" stroke="#dc2626" stroke-width="2.4"/>
<circle cx="82.0" cy="309.9" r="3" fill="#dc2626"/>
<circle cx="218.8" cy="194.2" r="3" fill="#dc2626"/>
<circle cx="355.7" cy="170.5" r="3" fill="#dc2626"/>
<circle cx="492.5" cy="160.9" r="3" fill="#dc2626"/>
<circle cx="629.4" cy="147.2" r="3" fill="#dc2626"/>
<polyline points="82.0,125.4 116.2,109.6 150.4,100.6 184.6,94.8 218.8,94.5 253.1,92.6 287.3,90.8 321.5,90.1 355.7,89.1 389.9,88.5 424.1,86.8 458.3,86.8 492.5,87.0 526.7,85.9 560.9,86.5 595.2,87.4 629.4,85.2 663.6,85.8 697.8,84.3 732.0,84.2" fill="none" stroke="#2563eb" stroke-width="2.4"/>
<circle cx="82.0" cy="125.4" r="3" fill="#2563eb"/>
<circle cx="218.8" cy="94.5" r="3" fill="#2563eb"/>
<circle cx="355.7" cy="89.1" r="3" fill="#2563eb"/>
<circle cx="492.5" cy="87.0" r="3" fill="#2563eb"/>
<circle cx="629.4" cy="85.2" r="3" fill="#2563eb"/>
<line x1="760" y1="86" x2="784" y2="86" stroke="#dc2626" stroke-width="3"/>
<text x="792" y="90" class="small">sgd_lr_0_01</text>
<line x1="760" y1="114" x2="784" y2="114" stroke="#2563eb" stroke-width="3"/>
<text x="792" y="118" class="small">adam_baseline</text>
</svg>
